TITLE ""
FILE "DISC1Track11.mp3" MP3
  TRACK 01 AUDIO
    TITLE "DISC1Track11_01"
    INDEX 01 00:00:00
  TRACK 02 AUDIO
    TITLE "DISC1Track11_02"
    INDEX 01 00:02:25
  TRACK 03 AUDIO
    TITLE "DISC1Track11_03"
    INDEX 01 00:02:54
  TRACK 04 AUDIO
    TITLE "DISC1Track11_04"
    INDEX 01 00:04:41
  TRACK 05 AUDIO
    TITLE "DISC1Track11_05"
    INDEX 01 00:06:50
  TRACK 06 AUDIO
    TITLE "DISC1Track11_06"
    INDEX 01 00:08:59
  TRACK 07 AUDIO
    TITLE "DISC1Track11_07"
    INDEX 01 00:09:01
  TRACK 08 AUDIO
    TITLE "DISC1Track11_08"
    INDEX 01 00:11:26
  TRACK 09 AUDIO
    TITLE "DISC1Track11_09"
    INDEX 01 00:13:52
  TRACK 10 AUDIO
    TITLE "DISC1Track11_10"
    INDEX 01 00:15:67
  TRACK 11 AUDIO
    TITLE "DISC1Track11_11"
    INDEX 01 00:16:15
  TRACK 12 AUDIO
    TITLE "DISC1Track11_12"
    INDEX 01 00:18:08
  TRACK 13 AUDIO
    TITLE "DISC1Track11_13"
    INDEX 01 00:20:27
  TRACK 14 AUDIO
    TITLE "DISC1Track11_14"
    INDEX 01 00:22:35
  TRACK 15 AUDIO
    TITLE "DISC1Track11_15"
    INDEX 01 00:22:63
  TRACK 16 AUDIO
    TITLE "DISC1Track11_16"
    INDEX 01 00:24:54
  TRACK 17 AUDIO
    TITLE "DISC1Track11_17"
    INDEX 01 00:26:47
  TRACK 18 AUDIO
    TITLE "DISC1Track11_18"
    INDEX 01 00:28:34
  TRACK 19 AUDIO
    TITLE "DISC1Track11_19"
    INDEX 01 00:28:67
  TRACK 20 AUDIO
    TITLE "DISC1Track11_20"
    INDEX 01 00:32:06
  TRACK 21 AUDIO
    TITLE "DISC1Track11_21"
    INDEX 01 00:35:30
  TRACK 22 AUDIO
    TITLE "DISC1Track11_22"
    INDEX 01 00:38:34
  TRACK 23 AUDIO
    TITLE "DISC1Track11_23"
    INDEX 01 00:38:66
  TRACK 24 AUDIO
    TITLE "DISC1Track11_24"
    INDEX 01 00:41:09
  TRACK 25 AUDIO
    TITLE "DISC1Track11_25"
    INDEX 01 00:43:67
  TRACK 26 AUDIO
    TITLE "DISC1Track11_26"
    INDEX 01 00:46:42
  TRACK 27 AUDIO
    TITLE "DISC1Track11_27"
    INDEX 01 00:46:73
  TRACK 28 AUDIO
    TITLE "DISC1Track11_28"
    INDEX 01 00:49:28
  TRACK 29 AUDIO
    TITLE "DISC1Track11_29"
    INDEX 01 00:51:61
  TRACK 30 AUDIO
    TITLE "DISC1Track11_30"
    INDEX 01 00:53:71
  TRACK 31 AUDIO
    TITLE "DISC1Track11_31"
    INDEX 01 00:54:26
  TRACK 32 AUDIO
    TITLE "DISC1Track11_32"
    INDEX 01 00:56:72
  TRACK 33 AUDIO
    TITLE "DISC1Track11_33"
    INDEX 01 00:59:01
  TRACK 34 AUDIO
    TITLE "DISC1Track11_34"
    INDEX 01 01:00:75
  TRACK 35 AUDIO
    TITLE "DISC1Track11_35"
    INDEX 01 01:01:33
  TRACK 36 AUDIO
    TITLE "DISC1Track11_36"
    INDEX 01 01:04:14
  TRACK 37 AUDIO
    TITLE "DISC1Track11_37"
    INDEX 01 01:08:06
  TRACK 38 AUDIO
    TITLE "DISC1Track11_38"
    INDEX 01 01:11:57
  TRACK 39 AUDIO
    TITLE "DISC1Track11_39"
    INDEX 01 01:12:08
  TRACK 40 AUDIO
    TITLE "DISC1Track11_40"
    INDEX 01 01:14:07
  TRACK 41 AUDIO
    TITLE "DISC1Track11_41"
    INDEX 01 01:16:15
  TRACK 42 AUDIO
    TITLE "DISC1Track11_42"
    INDEX 01 01:18:14
  TRACK 43 AUDIO
    TITLE "DISC1Track11_43"
    INDEX 01 01:18:44
  TRACK 44 AUDIO
    TITLE "DISC1Track11_44"
    INDEX 01 01:21:26
  TRACK 45 AUDIO
    TITLE "DISC1Track11_45"
    INDEX 01 01:24:09
  TRACK 46 AUDIO
    TITLE "DISC1Track11_46"
    INDEX 01 01:26:49
  TRACK 47 AUDIO
    TITLE "DISC1Track11_47"
    INDEX 01 01:27:04
  TRACK 48 AUDIO
    TITLE "DISC1Track11_48"
    INDEX 01 01:28:44
  TRACK 49 AUDIO
    TITLE "DISC1Track11_49"
    INDEX 01 01:30:55
  TRACK 50 AUDIO
    TITLE "DISC1Track11_50"
    INDEX 01 01:32:52
